<?xml version="1.0" standalone="no"?>
<!DOCTYPE svg PUBLIC "-//W3C//DTD SVG 20010904//EN"
 "http://www.w3.org/TR/2001/REC-SVG-20010904/DTD/svg10.dtd">
<svg version="1.0" xmlns="http://www.w3.org/2000/svg"
 width="500.000000pt" height="500.000000pt" viewBox="0 0 500.000000 500.000000"
 preserveAspectRatio="xMidYMid meet">

<g transform="translate(0.000000,500.000000) scale(0.100000,-0.100000)"
fill="#000000" stroke="none">
<path d="M813 3869 c-65 -25 -145 -96 -172 -152 -23 -48 -42 -125 -32 -131 3
-2 110 16 236 40 127 24 230 44 231 44 1 0 -1 22 -4 50 -4 46 -2 52 28 80 l32
30 -58 27 c-79 37 -186 42 -261 12z"/>
<path d="M1223 3811 c-125 -41 -124 -41 -98 -177 27 -135 18 -128 146 -122 61
3 115 10 121 16 13 13 -34 275 -53 298 -15 18 -18 17 -116 -15z"/>
<path d="M3687 3723 c-4 -3 -7 -375 -7 -825 l0 -818 40 0 c33 0 40 3 40 20 0
17 7 20 40 20 l40 0 0 -65 0 -65 -160 0 -160 0 0 -35 0 -35 353 2 352 3 3 33
3 32 -165 0 -166 0 0 65 0 65 47 0 c45 0 46 0 29 19 -25 28 -12 41 42 41 124
0 253 -43 333 -109 57 -47 104 -127 145 -246 21 -59 51 -128 68 -154 58 -86
174 -122 291 -90 69 19 135 51 135 65 0 18 2 18 -49 -7 -23 -11 -71 -27 -107
-36 -95 -24 -161 -7 -224 56 -41 41 -52 62 -84 158 -42 127 -91 209 -160 270
-91 81 -192 113 -349 113 l-93 0 -39 40 c-30 31 -47 40 -79 42 l-41 3 -3 723
-2 722 -33 0 c-19 0 -37 -3 -40 -7z"/>
<path d="M842 3535 c-123 -24 -225 -45 -227 -47 -2 -2 5 -23 16 -48 33 -74 84
-126 156 -162 58 -28 77 -33 143 -32 118 0 209 49 275 147 46 68 45 77 -8 77
-51 0 -83 27 -93 78 -4 21 -12 32 -23 31 -9 0 -117 -20 -239 -44z"/>
<path d="M440 3261 c-90 -29 -170 -100 -214 -189 -37 -74 -92 -270 -110 -394
-26 -175 -16 -427 22 -532 22 -63 89 -138 144 -162 38 -17 82 -19 397 -24
l354 -5 23 -85 c12 -47 55 -213 95 -369 43 -168 81 -296 93 -314 37 -55 81
-77 151 -77 67 0 110 21 147 71 39 52 41 97 7 226 -234 904 -216 849 -296 889
-34 17 -68 19 -332 22 l-294 4 6 98 6 98 -136 222 c-150 244 -158 269 -117
341 21 37 92 79 133 79 57 0 108 -38 158 -118 41 -65 49 -73 51 -53 12 83 -29
195 -90 244 -31 25 -47 30 -105 33 -37 2 -79 0 -93 -5z"/>
<path d="M480 3113 c-28 -10 -69 -56 -75 -83 -3 -16 0 -43 8 -61 17 -42 293
-488 316 -511 9 -9 68 -36 131 -59 109 -40 123 -42 257 -48 139 -6 142 -7 180
-37 21 -17 47 -45 58 -62 24 -37 55 -47 101 -32 48 16 74 53 74 107 0 73 -24
88 -265 173 -115 41 -248 88 -295 105 l-85 30 -137 220 c-88 141 -148 228
-169 243 -31 21 -67 27 -99 15z"/>
<path d="M3052 2453 c-5 -10 -15 -35 -22 -56 -16 -49 -6 -60 76 -87 l64 -22 0
-164 0 -164 -90 0 c-83 0 -90 -1 -90 -20 0 -19 7 -20 200 -20 193 0 200 1 200
20 0 19 -7 20 -90 20 l-90 0 0 156 0 157 33 -8 c17 -5 48 -8 67 -9 33 -1 35 1
54 52 19 52 19 54 0 71 -20 20 -241 91 -280 91 -13 0 -27 -8 -32 -17z"/>
<path d="M1567 2422 c-14 -3 -16 -9 -10 -25 4 -12 8 -48 8 -80 0 -31 4 -57 8
-57 4 0 23 7 42 14 41 17 44 34 16 99 -20 46 -33 56 -64 49z"/>
<path d="M0 1545 l0 -335 420 0 420 0 0 335 0 335 -420 0 -420 0 0 -335z"/>
<path d="M2870 1545 l0 -335 770 0 770 0 0 335 0 335 -770 0 -770 0 0 -335z"/>
<path d="M0 1145 c0 -24 3 -25 60 -25 57 0 60 1 60 25 0 24 -3 25 -60 25 -57
0 -60 -1 -60 -25z"/>
<path d="M720 1145 c0 -24 3 -25 60 -25 57 0 60 1 60 25 0 24 -3 25 -60 25
-57 0 -60 -1 -60 -25z"/>
<path d="M2870 1145 c0 -24 3 -25 55 -25 52 0 55 1 55 25 0 24 -3 25 -55 25
-52 0 -55 -1 -55 -25z"/>
<path d="M4300 1145 c0 -24 3 -25 55 -25 52 0 55 1 55 25 0 24 -3 25 -55 25
-52 0 -55 -1 -55 -25z"/>
</g>
</svg>
